PathFileType	4	(X/Y/Z)	./resultDataOpenSim/trcMotMarkerGrf/sub09/qtm-02-07.trc
DataRate	CameraRate	NumFrames	NumMarkers	Units	OrigDataRate	OrigDataStartFrame	OrigNumFrames
250.000000	250.000000	7	24	m	250.000000	364	485
Frame#	Time	L.Toe.Tip			R.Toe.Tip			L.Ankle.Lat			R.Ankle.Lat			L.Ankle.Med			R.Ankle.Med			L.Heel			R.Heel			L.Knee.Lat			R.Knee.Lat			L.Knee.Med			R.Knee.Med			L.Thigh.Upper			R.Thigh.Upper			L.ASIS			R.ASIS			V.Sacral			L.Acromium			R.Acromium			C7			L.Elbow			R.Elbow			L.Wrist.Lat			R.Wrist.Lat
		X1	Y1	Z1	X2	Y2	Z2	X3	Y3	Z3	X4	Y4	Z4	X5	Y5	Z5	X6	Y6	Z6	X7	Y7	Z7	X8	Y8	Z8	X9	Y9	Z9	X10	Y10	Z10	X11	Y11	Z11	X12	Y12	Z12	X13	Y13	Z13	X14	Y14	Z14	X15	Y15	Z15	X16	Y16	Z16	X17	Y17	Z17	X18	Y18	Z18	X19	Y19	Z19	X20	Y20	Z20	X21	Y21	Z21	X22	Y22	Z22	X23	Y23	Z23	X24	Y24	Z24

364	1.452	0.97291632	0.093395442	-0.066661493	1.0440423	0.039087801	0.068902947	0.86458079	0.19845627	-0.096309431	0.89584944	0.055475361	0.10686717	0.89451843	0.19451818	-0.0023024787	0.9065602	0.093928122	0.014605378	0.78316656	0.19796065	-0.050512049	0.82716056	0.036556823	0.059701165	1.1287454	0.51330377	-0.10954336	1.0099653	0.49963163	0.16466322	1.1249847	0.50411547	0.013760821	0.98707761	0.4912342	0.039427054	0.96506522	0.89544993	-0.13949349	0.94853096	0.90312242	0.2305644	1.0276424	0.98606098	-0.077867059	1.0334169	0.99279656	0.1604507	0.8623381	1.0375681	0.035891687	1.0090807	1.4401217	-0.13451256	0.98893621	1.4530891	0.19520529	0.92941451	1.4922221	0.026940632	0.89895962	1.0826337	-0.17506719	0.86679899	1.1039508	0.28185159	1.0675453	0.87923677	-0.21194646	1.0531713	0.89769407	0.2808569
365	1.456	0.99190853	0.091497116	-0.066576567	1.0442568	0.039084635	0.068772351	0.88086488	0.19359231	-0.096547618	0.89612584	0.05561579	0.10668066	0.91048463	0.19055239	-0.0023733962	0.90659356	0.09405824	0.014404443	0.79945029	0.19108865	-0.051105995	0.82713624	0.036864232	0.059433397	1.1377115	0.51493527	-0.10944765	1.0107774	0.49951515	0.16508134	1.1346178	0.50606077	0.013998444	0.98877099	0.49117849	0.039477341	0.97139199	0.896279	-0.13971535	0.95349342	0.9033462	0.23038134	1.0339046	0.98674598	-0.077892832	1.0388443	0.99310903	0.1605932	0.86779506	1.0376967	0.035618336	1.0143406	1.4403328	-0.1347267	0.9945863	1.4537876	0.19501833	0.93489022	1.492706	0.026814902	0.90298132	1.0833795	-0.17505821	0.8736521	1.1040941	0.28225426	1.0694445	0.87862178	-0.2130422	1.0621962	0.89978702	0.28001281
366	1.46	1.0108111	0.089616077	-0.066480045	1.0444165	0.039042184	0.068664106	0.89729351	0.18867577	-0.096767278	0.89649803	0.055750947	0.10644114	0.92660115	0.18653745	-0.0024400457	0.90640272	0.094153762	0.014143904	0.81588922	0.1841275	-0.051589908	0.82713811	0.037196802	0.059188984	1.1464988	0.51650868	-0.10941583	1.0121171	0.49939423	0.16533316	1.1442572	0.50788653	0.014240253	0.99038555	0.49116345	0.039530276	0.97765842	0.89701672	-0.13993715	0.95797141	0.9035407	0.23029135	1.0402325	0.98735138	-0.077929923	1.0442616	0.99337252	0.16071439	0.87337756	1.0377954	0.035372006	1.0196057	1.4404861	-0.13493952	1.0002228	1.4544194	0.19483622	0.94036029	1.4931325	0.026684532	0.907031	1.0840618	-0.17505518	0.88064981	1.1041925	0.28272853	1.0713648	0.87798397	-0.21412497	1.0711941	0.90183026	0.2791687
367	1.464	1.0297706	0.087822684	-0.066369093	1.0445159	0.038967903	0.06857815	0.91385498	0.183727	-0.096965168	0.89687384	0.055902453	0.10619046	0.94292484	0.18248	-0.0025470148	0.90624348	0.09428854	0.013910675	0.83248308	0.17708672	-0.051963763	0.82720018	0.037560627	0.059006066	1.1550924	0.51800769	-0.10944481	1.0135956	0.49929423	0.16548172	1.1538312	0.50958118	0.014465248	0.99197444	0.49118792	0.039633968	0.98380805	0.89765065	-0.14015393	0.96151766	0.90369288	0.23039981	1.0466109	0.98787921	-0.07797604	1.0496628	0.99358491	0.16081041	0.87905867	1.0379201	0.035190929	1.0248726	1.4405825	-0.13515	1.0058385	1.4549823	0.19465242	0.94582821	1.4934843	0.026556817	0.91110133	1.0846868	-0.17505795	0.88773601	1.104231	0.28324605	1.0732989	0.87731799	-0.21519857	1.0801561	0.9038211	0.27832252
368	1.468	1.0488784	0.086157407	-0.066266707	1.0446031	0.038893303	0.06850854	0.93053461	0.17877689	-0.09713836	0.89717245	0.056086091	0.10597772	0.95946193	0.17839873	-0.0027029817	0.90625625	0.094501054	0.013751693	0.84924893	0.16998051	-0.05226364	0.82730408	0.037947589	0.058854816	1.1634832	0.51939443	-0.10952207	1.0149741	0.49923914	0.16560104	1.1632664	0.51113268	0.01465133	0.99354963	0.49123359	0.039847472	0.98976878	0.89816832	-0.14035833	0.9643045	0.90383515	0.23066343	1.0530245	0.98833135	-0.078028941	1.0550538	0.9937455	0.16088769	0.88479731	1.0380921	0.0350409	1.0301404	1.4406214	-0.13535588	1.011433	1.4554732	0.19446707	0.95129426	1.4937619	0.026430147	0.91518807	1.0852634	-0.1750652	0.8948347	1.104192	0.28376992	1.0752395	0.87661953	-0.21627262	1.0890796	0.90575897	0.27747363
369	1.472	1.068118	0.084615058	-0.066199492	1.0447118	0.038843949	0.068462503	0.94732259	0.1738476	-0.097286831	0.89738501	0.056299213	0.10581667	0.97618806	0.17431401	-0.002893584	0.9064109	0.094775782	0.013666711	0.86620329	0.16283487	-0.052527009	0.8274013	0.038343921	0.058657785	1.1716774	0.52063451	-0.10963962	1.0162607	0.49923393	0.16573751	1.1724836	0.51252796	0.014774855	0.99516256	0.49125781	0.040178454	0.99554589	0.89857496	-0.14053332	0.96736324	0.90401003	0.23086894	1.0594582	0.98870962	-0.078086393	1.0604485	0.99385943	0.16095533	0.89054991	1.038294	0.034855422	1.0354099	1.4406054	-0.13556455	1.0170131	1.4558902	0.19428385	0.95675372	1.4939741	0.026300597	0.91929301	1.0857874	-0.17507159	0.90190294	1.1040701	0.2842745	1.0771847	0.87588674	-0.21735462	1.097967	0.90764497	0.27662211
370	1.476	1.0874365	0.083163098	-0.066179084	1.0448336	0.038832893	0.068463746	0.96422691	0.1689276	-0.097417579	0.89754599	0.056528128	0.10568469	0.99311706	0.17024932	-0.0031330153	0.90668495	0.095080484	0.013662042	0.88335463	0.15568649	-0.052766781	0.82744451	0.038740374	0.058331969	1.1797066	0.52172392	-0.10979305	1.0175617	0.4992516	0.16589662	1.1813932	0.51375258	0.01481158	0.99693691	0.49122724	0.040584286	1.0012928	0.89890039	-0.14066651	0.97162438	0.90423638	0.23083708	1.0658972	0.98901597	-0.078146278	1.0658583	0.99393714	0.16101797	0.89628822	1.0384851	0.034601266	1.0406829	1.4405428	-0.13579548	1.0225852	1.4562334	0.19410604	0.96221259	1.4941294	0.026174266	0.92342555	1.0862443	-0.17507491	0.90891914	1.1038698	0.28473471	1.0791395	0.87512027	-0.21844315	1.1068222	0.90948201	0.27576919
